<?xml version="1.0" encoding="UTF-8" standalone="no"?>
<svg
   xmlns:dc="http://purl.org/dc/elements/1.1/"
   xmlns:cc="http://creativecommons.org/ns#"
   xmlns:rdf="http://www.w3.org/1999/02/22-rdf-syntax-ns#"
   xmlns:svg="http://www.w3.org/2000/svg"
   xmlns="http://www.w3.org/2000/svg"
   xmlns:xlink="http://www.w3.org/1999/xlink"
   xmlns:sodipodi="http://sodipodi.sourceforge.net/DTD/sodipodi-0.dtd"
   xmlns:inkscape="http://www.inkscape.org/namespaces/inkscape"
   width="640"
   height="480"
   viewBox="-600 -400 853.33336 640"
   id="svg2"
   version="1.1"
   inkscape:version="0.48.4 r9939"
   sodipodi:docname="earth.svg">
  <metadata
     id="metadata64">
    <rdf:RDF>
      <cc:Work
         rdf:about="">
        <dc:format>image/svg+xml</dc:format>
        <dc:type
           rdf:resource="http://purl.org/dc/dcmitype/StillImage" />
        <dc:title></dc:title>
      </cc:Work>
    </rdf:RDF>
  </metadata>
  <sodipodi:namedview
     pagecolor="#ffffff"
     bordercolor="#666666"
     borderopacity="1"
     objecttolerance="10"
     gridtolerance="10"
     guidetolerance="10"
     inkscape:pageopacity="0"
     inkscape:pageshadow="2"
     inkscape:window-width="1920"
     inkscape:window-height="1027"
     id="namedview62"
     showgrid="false"
     fit-margin-left="0"
     inkscape:zoom="0.89881129"
     inkscape:cx="358.96668"
     inkscape:cy="290.27432"
     inkscape:window-x="-8"
     inkscape:window-y="-8"
     inkscape:window-maximized="1"
     inkscape:current-layer="svg2">
    <sodipodi:guide
       position="0,0"
       orientation="0,640"
       id="guide3041" />
    <sodipodi:guide
       position="640,0"
       orientation="-480,0"
       id="guide3043" />
    <sodipodi:guide
       position="640,480"
       orientation="0,-640"
       id="guide3045" />
    <sodipodi:guide
       position="0,480"
       orientation="480,0"
       id="guide3047" />
  </sodipodi:namedview>
  <defs
     id="defs4">
    <circle
       id="rb"
       r="145.6633"
       cx="0"
       cy="0"
       sodipodi:cx="0"
       sodipodi:cy="0"
       sodipodi:rx="145.6633"
       sodipodi:ry="145.6633"
       style="fill:none;stroke:#013ba6;stroke-width:39.03036118" />
    <circle
       id="rw"
       r="145.6633"
       cx="0"
       cy="0"
       sodipodi:cx="0"
       sodipodi:cy="0"
       sodipodi:rx="145.6633"
       sodipodi:ry="145.6633"
       style="fill:none;stroke:#ffffff;stroke-width:17.34682655" />
    <clipPath
       id="o">
      <path
         d="m 0,-200 v 400 h 200 v -400 z m -200,0 v 400 h 100 v -400 z"
         id="path9"
         inkscape:connector-curvature="0" />
    </clipPath>
    <clipPath
       id="h">
      <path
         d="M -200,-200 H 200 V 50 h -400 z"
         id="path12"
         inkscape:connector-curvature="0" />
    </clipPath>
    <clipPath
       id="i1">
      <path
         d="M 0,0 -200,-150 V 150 z"
         id="path15"
         inkscape:connector-curvature="0" />
    </clipPath>
    <clipPath
       id="i2">
      <path
         d="M 0,0 -200,-200 V 200 z"
         id="path18"
         inkscape:connector-curvature="0" />
    </clipPath>
    <clipPath
       id="l1">
      <path
         d="M 0,0 -50,-200 H -200 V 150 z"
         id="path21"
         inkscape:connector-curvature="0" />
    </clipPath>
    <clipPath
       id="l2">
      <path
         d="M 0,0 V -200 H -200 V 200 z"
         id="path24"
         inkscape:connector-curvature="0" />
    </clipPath>
  </defs>
  <rect
     width="853.33337"
     height="640"
     x="-600"
     y="-400"
     id="rect26"
     style="fill:#013ba6" />
  <g
     id="ro"
     transform="matrix(0.80000006,0,0,0.80000002,-56.802618,-79.999986)">
    <use
       xlink:href="#rb"
       clip-path="url(#o)"
       id="use29"
       x="0"
       y="0"
       width="1200"
       height="800" />
    <use
       xlink:href="#rw"
       id="use31"
       x="0"
       y="0"
       width="1200"
       height="800" />
  </g>
  <use
     xlink:href="#ro"
     transform="matrix(0.5,-0.86602537,0.86602543,0.5,-17.384607,-190.11096)"
     id="use33"
     x="0"
     y="0"
     width="1200"
     height="800" />
  <use
     xlink:href="#ro"
     transform="matrix(0.5,0.86602537,-0.86602543,0.5,-155.94868,110.11099)"
     id="use35"
     x="0"
     y="0"
     width="1200"
     height="800" />
  <use
     xlink:href="#ro"
     transform="matrix(-0.5,0.86602537,-0.86602543,-0.5,-329.28189,30.111019)"
     id="use37"
     x="0"
     y="0"
     width="1200"
     height="800" />
  <use
     xlink:href="#ro"
     transform="matrix(-1,0,0,-1,-346.66653,-159.99995)"
     id="use39"
     x="0"
     y="0"
     width="1200"
     height="800" />
  <use
     xlink:href="#ro"
     transform="matrix(-0.5,-0.86602537,0.86602543,-0.5,-190.71785,-270.11095)"
     id="use41"
     x="0"
     y="0"
     width="1200"
     height="800" />
  <g
     id="g43"
     transform="matrix(0.80000006,0,0,0.80000002,-173.33326,-79.999986)">
    <use
       xlink:href="#rb"
       clip-path="url(#h)"
       id="use45"
       x="0"
       y="0"
       width="1200"
       height="800" />
    <use
       xlink:href="#rw"
       id="use47"
       x="0"
       y="0"
       width="1200"
       height="800" />
  </g>
  <g
     transform="matrix(0.80000006,0,0,0.80000002,-56.802618,-79.999986)"
     id="g49">
    <use
       xlink:href="#rb"
       clip-path="url(#i1)"
       id="use51"
       x="0"
       y="0"
       width="1200"
       height="800" />
    <use
       xlink:href="#rw"
       clip-path="url(#i2)"
       id="use53"
       x="0"
       y="0"
       width="1200"
       height="800" />
  </g>
  <g
     id="rl"
     transform="matrix(-0.40000003,0.69282034,-0.69282037,-0.40000001,-231.59858,20.918509)">
    <use
       xlink:href="#rb"
       clip-path="url(#l1)"
       id="use56"
       x="0"
       y="0"
       width="1200"
       height="800" />
    <use
       xlink:href="#rw"
       clip-path="url(#l2)"
       id="use58"
       x="0"
       y="0"
       width="1200"
       height="800" />
  </g>
  <use
     xlink:href="#rl"
     transform="matrix(-1,0,0,1,-346.66653,-5.3984375e-6)"
     id="use60"
     x="0"
     y="0"
     width="1200"
     height="800" />
</svg>
